<svg width="44" height="44" viewBox="0 0 44 44" fill="none" xmlns="http://www.w3.org/2000/svg">
<path d="M22 41C18.2422 41 14.5687 39.8857 11.4442 37.7979C8.31964 35.7102 5.88436 32.7428 4.4463 29.271C3.00823 25.7992 2.63197 21.9789 3.36509 18.2933C4.09821 14.6077 5.90778 11.2222 8.56498 8.56498C11.2222 5.90778 14.6077 4.09821 18.2933 3.36509C21.9789 2.63197 25.7992 3.00823 29.271 4.4463C32.7428 5.88436 35.7102 8.31964 37.7979 11.4442C39.8857 14.5687 41 18.2422 41 22C41 27.0391 38.9982 31.8718 35.435 35.435C31.8718 38.9982 27.0391 41 22 41ZM22 5.92308C18.8203 5.92308 15.712 6.86598 13.0681 8.63253C10.4243 10.3991 8.36369 12.91 7.14687 15.8476C5.93004 18.7853 5.61167 22.0178 6.232 25.1365C6.85233 28.2551 8.38351 31.1197 10.6319 33.3681C12.8803 35.6165 15.7449 37.1477 18.8636 37.768C21.9822 38.3883 25.2147 38.07 28.1524 36.8531C31.09 35.6363 33.6009 33.5757 35.3675 30.9319C37.134 28.288 38.0769 25.1797 38.0769 22C38.0769 17.7361 36.3831 13.6469 33.3681 10.6319C30.3531 7.6169 26.2639 5.92308 22 5.92308Z" fill="white"/>
<path d="M30.0388 31.4998C29.8464 31.5009 29.6558 31.464 29.4777 31.3913C29.2996 31.3186 29.1377 31.2114 29.0011 31.0759L20.9626 23.0375C20.8272 22.9009 20.72 22.739 20.6473 22.5609C20.5745 22.3828 20.5377 22.1921 20.5388 21.9998V10.3075C20.5388 9.91986 20.6928 9.54811 20.9669 9.27402C21.2409 8.99993 21.6127 8.84595 22.0003 8.84595C22.3879 8.84595 22.7597 8.99993 23.0338 9.27402C23.3079 9.54811 23.4619 9.91986 23.4619 10.3075V21.4006L31.0765 29.0006C31.2135 29.1364 31.3222 29.2981 31.3964 29.4762C31.4706 29.6543 31.5088 29.8453 31.5088 30.0383C31.5088 30.2312 31.4706 30.4222 31.3964 30.6003C31.3222 30.7784 31.2135 30.9401 31.0765 31.0759C30.9399 31.2114 30.7779 31.3186 30.5999 31.3913C30.4218 31.464 30.2311 31.5009 30.0388 31.4998Z" fill="white"/>
</svg>
