<svg width="40" height="41" viewBox="0 0 40 41" fill="none" xmlns="http://www.w3.org/2000/svg">
<path d="M20 35.3571C17.0333 35.3571 14.1332 34.4774 11.6665 32.8291C9.19971 31.1809 7.27713 28.8382 6.14181 26.0973C5.0065 23.3564 4.70945 20.3405 5.28823 17.4307C5.86701 14.521 7.29562 11.8483 9.3934 9.75049C11.4912 7.6527 14.1639 6.22409 17.0736 5.64531C19.9834 5.06654 22.9994 5.36359 25.7403 6.4989C28.4811 7.63421 30.8238 9.5568 32.472 12.0235C34.1203 14.4903 35 17.3904 35 20.3571C35 24.3353 33.4196 28.1506 30.6066 30.9637C27.7936 33.7767 23.9783 35.3571 20 35.3571ZM20 7.66478C17.4897 7.66478 15.0358 8.40918 12.9485 9.80382C10.8613 11.1985 9.23449 13.1807 8.27384 15.5C7.31319 17.8192 7.06184 20.3712 7.55158 22.8332C8.04131 25.2953 9.25014 27.5569 11.0252 29.3319C12.8002 31.107 15.0618 32.3158 17.5239 32.8055C19.9859 33.2952 22.5379 33.0439 24.8571 32.0833C27.1764 31.1226 29.1586 29.4958 30.5533 27.4086C31.9479 25.3213 32.6923 22.8674 32.6923 20.3571C32.6923 16.9909 31.3551 13.7625 28.9748 11.3823C26.5946 9.00201 23.3662 7.66478 20 7.66478Z" fill="black"/>
<path d="M26.3465 27.8569C26.1946 27.8577 26.0441 27.8286 25.9035 27.7712C25.7629 27.7138 25.635 27.6292 25.5272 27.5223L19.1811 21.1761C19.0741 21.0683 18.9895 20.9404 18.9321 20.7998C18.8747 20.6593 18.8456 20.5087 18.8465 20.3569V11.1261C18.8465 10.8201 18.968 10.5266 19.1844 10.3102C19.4008 10.0938 19.6943 9.97226 20.0003 9.97226C20.3063 9.97226 20.5998 10.0938 20.8162 10.3102C21.0326 10.5266 21.1541 10.8201 21.1541 11.1261V19.8838L27.1657 25.8838C27.2738 25.9911 27.3597 26.1187 27.4183 26.2593C27.4768 26.3999 27.507 26.5507 27.507 26.703C27.507 26.8553 27.4768 27.0062 27.4183 27.1468C27.3597 27.2874 27.2738 27.415 27.1657 27.5223C27.0579 27.6292 26.93 27.7138 26.7894 27.7712C26.6488 27.8286 26.4983 27.8577 26.3465 27.8569Z" fill="black"/>
</svg>
