<svg width="40" height="41" viewBox="0 0 40 41" fill="none" xmlns="http://www.w3.org/2000/svg">
<path d="M29.3725 26.9845C27.5874 28.7696 23.5614 32.7956 21.4131 34.9439C20.6321 35.725 19.3686 35.7257 18.5876 34.9447C16.4744 32.8316 12.5349 28.8921 10.6274 26.9845C5.45103 21.8082 5.45103 13.4157 10.6274 8.23934C15.8037 3.063 24.1962 3.063 29.3725 8.23934C34.5489 13.4157 34.5489 21.8082 29.3725 26.9845Z" stroke="#09273B" stroke-width="2" stroke-linecap="round" stroke-linejoin="round"/>
<path d="M24.9705 17.6119C24.9705 20.3571 22.7451 22.5825 20 22.5825C17.2548 22.5825 15.0294 20.3571 15.0294 17.6119C15.0294 14.8668 17.2548 12.6414 20 12.6414C22.7451 12.6414 24.9705 14.8668 24.9705 17.6119Z" stroke="#09273B" stroke-width="2" stroke-linecap="round" stroke-linejoin="round"/>
</svg>
