<svg width="38" height="38" viewBox="0 0 38 38" fill="none" xmlns="http://www.w3.org/2000/svg">
<path d="M28.8995 25.8345C26.9867 27.7021 22.6379 31.9481 20.3952 34.1378C19.6182 34.8965 18.3809 34.8955 17.6039 34.1369C15.3972 31.9824 11.1445 27.8302 9.10051 25.8345C3.63316 20.4964 3.63316 11.8417 9.10051 6.50357C14.5678 1.16548 23.4322 1.16548 28.8995 6.50357C34.3668 11.8417 34.3668 20.4964 28.8995 25.8345Z" stroke="white" stroke-width="2" stroke-linecap="round" stroke-linejoin="round"/>
<path d="M24.25 16.169C24.25 19 21.8995 21.2949 19 21.2949C16.1005 21.2949 13.75 19 13.75 16.169C13.75 13.3381 16.1005 11.0432 19 11.0432C21.8995 11.0432 24.25 13.3381 24.25 16.169Z" stroke="white" stroke-width="2" stroke-linecap="round" stroke-linejoin="round"/>
</svg>
