<svg width="30" height="36" viewBox="0 0 30 36" fill="none" xmlns="http://www.w3.org/2000/svg">
<path d="M24.8995 25.0416C22.9928 26.9596 18.6659 31.3123 16.4169 33.5746C15.6349 34.3613 14.3639 34.3601 13.5819 33.5735C11.3691 31.3475 7.13772 27.091 5.10051 25.0416C-0.366835 19.5418 -0.366835 10.6247 5.10051 5.12489C10.5678 -0.374964 19.4322 -0.374964 24.8995 5.12489C30.3668 10.6247 30.3668 19.5418 24.8995 25.0416Z" stroke="white" stroke-width="2" stroke-linecap="round" stroke-linejoin="round"/>
<path d="M20.25 15.0833C20.25 18 17.8995 20.3645 15 20.3645C12.1005 20.3645 9.75 18 9.75 15.0833C9.75 12.1665 12.1005 9.80204 15 9.80204C17.8995 9.80204 20.25 12.1665 20.25 15.0833Z" stroke="white" stroke-width="2" stroke-linecap="round" stroke-linejoin="round"/>
</svg>
