<svg width="40" height="41" viewBox="0 0 40 41" fill="none" xmlns="http://www.w3.org/2000/svg">
<path d="M18.7303 20.0931H13.0808C13.0798 20.0931 13.0789 20.0927 13.0782 20.092C13.0775 20.0912 13.0771 20.0902 13.0771 20.0892V18.234C13.0771 18.2304 13.0788 18.2287 13.0821 18.2287H20.481C20.4833 18.2287 20.4855 18.2278 20.4873 18.2262C20.6907 18.0286 20.8811 17.8047 21.0249 17.557C21.1737 17.3009 21.2566 17.0311 21.2735 16.7475C21.3303 15.7967 20.6214 15.2291 19.8224 15.0853C19.0856 14.9528 18.3989 15.0843 17.7622 15.4801C17.2058 15.8261 16.7525 16.359 16.4099 16.9376C16.4095 16.9382 16.409 16.9387 16.4084 16.9392C16.4079 16.9396 16.4072 16.9399 16.4065 16.94C16.4058 16.9402 16.4051 16.9402 16.4045 16.94C16.4038 16.9399 16.4031 16.9396 16.4026 16.9392L14.2037 15.3436C14.2031 15.3431 14.2026 15.3423 14.2024 15.3415C14.2022 15.3406 14.2023 15.3397 14.2028 15.3389C14.4942 14.8425 14.837 14.3986 15.2311 14.0073C15.8057 13.4369 16.4631 13.0039 17.2032 12.7085C18.251 12.2902 19.371 12.1948 20.5003 12.3506C20.9897 12.4181 21.4586 12.5471 21.907 12.7377C22.4832 12.9825 23.0068 13.341 23.4252 13.8302C23.943 14.4356 24.224 15.2098 24.228 16.0346C24.2299 16.4202 24.1728 16.8083 24.0569 17.1987C23.9474 17.5673 23.7842 17.9079 23.5671 18.2205C23.5668 18.2209 23.5666 18.2214 23.5666 18.222C23.5665 18.2225 23.5666 18.223 23.5669 18.2235C23.5671 18.224 23.5675 18.2244 23.5679 18.2247C23.5683 18.2249 23.5688 18.2251 23.5693 18.2251H25.7637C25.7675 18.2251 25.7695 18.2272 25.7695 18.2312L25.7693 20.0831C25.7693 20.0872 25.7675 20.0892 25.7637 20.0892H21.9883C21.9846 20.0892 21.9812 20.0905 21.9783 20.093L20.0324 21.7707C20.0285 21.7741 20.029 21.7758 20.034 21.7758H25.7646C25.7678 21.7758 25.7693 21.7775 25.7693 21.781V23.633C25.7693 23.6378 25.7671 23.6402 25.7627 23.6402H18.3296C18.325 23.6402 18.3208 23.6417 18.3171 23.6446C18.1027 23.8154 17.9299 24.004 17.7989 24.2103C17.5655 24.5778 17.4843 25.0091 17.5538 25.4513C17.6042 25.7727 17.7431 26.0415 17.9705 26.2579C18.2784 26.5508 18.7109 26.6892 19.1149 26.7478C19.3535 26.7824 19.5948 26.796 19.8388 26.7888C20.4412 26.771 20.9947 26.597 21.4994 26.2666C22.026 25.9219 22.456 25.4391 22.8125 24.8866C22.8127 24.8862 22.813 24.8859 22.8134 24.8856C22.8137 24.8854 22.8141 24.8852 22.8146 24.8851C22.815 24.885 22.8154 24.885 22.8158 24.8851C22.8163 24.8852 22.8167 24.8854 22.817 24.8857L25.1017 26.5254C25.1021 26.5257 25.1024 26.526 25.1027 26.5264C25.1029 26.5268 25.1031 26.5273 25.1032 26.5278C25.1033 26.5282 25.1033 26.5287 25.1032 26.5292C25.1031 26.5297 25.1029 26.5301 25.1027 26.5305C24.2974 27.8429 23.0621 28.7614 21.6703 29.2291C21.1492 29.4042 20.6162 29.5151 20.0711 29.5618C19.4694 29.6133 18.8583 29.5884 18.2378 29.4871C17.7442 29.4065 17.2717 29.2652 16.8202 29.0632C16.2709 28.8175 15.74 28.4437 15.353 27.9611C14.8702 27.359 14.6256 26.654 14.6191 25.846C14.6127 25.0491 14.8799 24.2597 15.364 23.6475C15.3643 23.6471 15.3644 23.6467 15.3645 23.6463C15.3645 23.6458 15.3645 23.6454 15.3643 23.645C15.3641 23.6446 15.3639 23.6443 15.3635 23.644C15.3632 23.6438 15.3628 23.6437 15.3624 23.6437H13.0823C13.0789 23.6437 13.0771 23.6418 13.0771 23.638V21.7852C13.0771 21.7837 13.0777 21.7823 13.0787 21.7812C13.0797 21.7802 13.081 21.7796 13.0824 21.7796H16.731C16.7352 21.7796 16.7393 21.778 16.7426 21.7752L18.7318 20.0977C18.7322 20.0974 18.7326 20.0969 18.7327 20.0964C18.7329 20.0959 18.7329 20.0953 18.7327 20.0948C18.7325 20.0943 18.7322 20.0938 18.7318 20.0935C18.7313 20.0932 18.7308 20.0931 18.7303 20.0931Z" fill="black"/>
<circle cx="20" cy="20.3571" r="14" stroke="black" stroke-width="2"/>
</svg>
