<svg width="44" height="44" viewBox="0 0 44 44" fill="none" xmlns="http://www.w3.org/2000/svg">
<path d="M20.3914 21.6655H13.2354C13.2341 21.6655 13.2329 21.6649 13.2321 21.664C13.2312 21.6631 13.2307 21.6618 13.2307 21.6605V19.3106C13.2307 19.3061 13.2328 19.3039 13.237 19.3039H22.6089C22.6118 19.3039 22.6147 19.3027 22.617 19.3006C22.8745 19.0505 23.1158 18.7668 23.2979 18.4531C23.4863 18.1286 23.5913 17.7869 23.6128 17.4277C23.6847 16.2233 22.7868 15.5044 21.7747 15.3223C20.8415 15.1543 19.9716 15.321 19.1651 15.8224C18.4604 16.2606 17.8861 16.9355 17.4522 17.6684C17.4517 17.6692 17.4511 17.6699 17.4504 17.6705C17.4496 17.671 17.4488 17.6714 17.4479 17.6716C17.4471 17.6718 17.4462 17.6718 17.4453 17.6716C17.4445 17.6714 17.4436 17.671 17.4429 17.6705L14.6577 15.6494C14.6569 15.6488 14.6562 15.6478 14.656 15.6467C14.6558 15.6456 14.656 15.6444 14.6565 15.6434C15.0257 15.0147 15.4598 14.4524 15.9591 13.9567C16.6869 13.2342 17.5196 12.6858 18.4571 12.3116C19.7842 11.7818 21.2029 11.661 22.6334 11.8583C23.2533 11.9438 23.8472 12.1072 24.4152 12.3486C25.145 12.6586 25.8083 13.1128 26.3383 13.7325C26.9941 14.4993 27.3501 15.4799 27.3552 16.5247C27.3575 17.0132 27.2853 17.5047 27.1383 17.9992C26.9997 18.466 26.7929 18.8975 26.5179 19.2935C26.5176 19.294 26.5173 19.2947 26.5173 19.2953C26.5173 19.296 26.5174 19.2967 26.5177 19.2973C26.518 19.2979 26.5184 19.2984 26.519 19.2987C26.5195 19.2991 26.5202 19.2993 26.5208 19.2993H29.3004C29.3052 19.2993 29.3076 19.3019 29.3076 19.3071L29.3075 21.6528C29.3075 21.6579 29.3051 21.6605 29.3004 21.6605H24.5182C24.5135 21.6605 24.5092 21.6621 24.5055 21.6653L22.0407 23.7904C22.0358 23.7947 22.0364 23.7968 22.0427 23.7968H29.3015C29.3055 23.7968 29.3075 23.799 29.3075 23.8034V26.1493C29.3075 26.1554 29.3047 26.1584 29.299 26.1584H19.8838C19.878 26.1584 19.8727 26.1603 19.868 26.164C19.5964 26.3804 19.3776 26.6193 19.2116 26.8806C18.916 27.3461 18.8131 27.8924 18.9011 28.4524C18.9649 28.8595 19.1409 29.2001 19.429 29.4741C19.8189 29.8452 20.3668 30.0205 20.8786 30.0947C21.1808 30.1385 21.4864 30.1558 21.7954 30.1467C22.5585 30.1242 23.2597 29.9037 23.8989 29.4852C24.5659 29.0485 25.1106 28.437 25.5621 27.7372C25.5624 27.7367 25.5628 27.7363 25.5633 27.736C25.5637 27.7356 25.5642 27.7354 25.5648 27.7353C25.5653 27.7352 25.5659 27.7352 25.5664 27.7353C25.5669 27.7354 25.5674 27.7357 25.5679 27.736L28.4618 29.813C28.4623 29.8134 28.4627 29.8138 28.463 29.8143C28.4633 29.8149 28.4636 29.8154 28.4637 29.816C28.4638 29.8166 28.4638 29.8172 28.4637 29.8178C28.4636 29.8184 28.4634 29.819 28.463 29.8195C27.443 31.4818 25.8783 32.6453 24.1154 33.2377C23.4554 33.4595 22.7801 33.5999 22.0897 33.6591C21.3276 33.7244 20.5535 33.6929 19.7676 33.5645C19.1424 33.4625 18.5438 33.2835 17.9719 33.0276C17.2761 32.7164 16.6037 32.2428 16.1134 31.6316C15.5019 30.869 15.1921 29.9759 15.1839 28.9525C15.1758 27.9431 15.5142 26.9431 16.1274 26.1676C16.1277 26.1672 16.1279 26.1667 16.128 26.1661C16.1281 26.1656 16.128 26.165 16.1278 26.1645C16.1276 26.164 16.1272 26.1636 16.1268 26.1633C16.1264 26.163 16.1259 26.1628 16.1253 26.1628H13.2373C13.2329 26.1628 13.2307 26.1604 13.2307 26.1557V23.8088C13.2307 23.8069 13.2314 23.8051 13.2327 23.8037C13.2339 23.8024 13.2356 23.8017 13.2374 23.8017H17.8589C17.8642 23.8017 17.8694 23.7997 17.8736 23.7961L20.3933 21.6713C20.3938 21.6709 20.3942 21.6703 20.3944 21.6696C20.3946 21.669 20.3946 21.6683 20.3944 21.6676C20.3942 21.6669 20.3938 21.6664 20.3932 21.666C20.3927 21.6656 20.392 21.6654 20.3914 21.6655Z" fill="white"/>
<circle cx="22" cy="22" r="18" stroke="white" stroke-width="2"/>
</svg>
