<svg width="30" height="30" viewBox="0 0 25 26" fill="none" xmlns="http://www.w3.org/2000/svg">
<path d="M11.4806 12.7881H6.94655C6.94577 12.7881 6.94502 12.7878 6.94447 12.7872C6.94391 12.7866 6.9436 12.7858 6.9436 12.785V11.2961C6.9436 11.2932 6.94493 11.2918 6.94759 11.2918H12.8857C12.8875 11.2918 12.8893 11.2911 12.8908 11.2898C13.0539 11.1313 13.2068 10.9515 13.3222 10.7528C13.4416 10.5472 13.5081 10.3306 13.5217 10.1031C13.5673 9.33999 12.9984 8.88448 12.3571 8.76908C11.7658 8.66267 11.2146 8.76828 10.7036 9.08592C10.2571 9.36362 9.89329 9.79125 9.61836 10.2556C9.61805 10.2561 9.61765 10.2566 9.61719 10.2569C9.61672 10.2572 9.6162 10.2575 9.61565 10.2576C9.6151 10.2577 9.61454 10.2577 9.61399 10.2576C9.61345 10.2575 9.61293 10.2572 9.61248 10.2569L7.84777 8.97634C7.84721 8.97595 7.84682 8.97534 7.84668 8.97464C7.84653 8.97393 7.84665 8.97319 7.84699 8.97256C8.08089 8.57416 8.35599 8.21793 8.6723 7.90386C9.13346 7.44607 9.66104 7.09861 10.255 6.86147C11.0959 6.5258 11.9948 6.44927 12.9012 6.57427C13.2939 6.62843 13.6703 6.73198 14.0301 6.88492C14.4926 7.08138 14.9128 7.36914 15.2486 7.76178C15.6641 8.24766 15.8897 8.86897 15.8929 9.53091C15.8944 9.84043 15.8486 10.1519 15.7555 10.4652C15.6677 10.761 15.5367 11.0343 15.3624 11.2853C15.3622 11.2856 15.3621 11.286 15.362 11.2864C15.362 11.2868 15.3621 11.2873 15.3623 11.2877C15.3625 11.288 15.3628 11.2884 15.3631 11.2886C15.3635 11.2888 15.3639 11.2889 15.3643 11.289H17.1254C17.1285 11.289 17.13 11.2906 17.13 11.2938L17.1299 12.7801C17.1299 12.7834 17.1284 12.785 17.1254 12.785H14.0954C14.0924 12.785 14.0897 12.786 14.0874 12.788L12.5256 14.1345C12.5225 14.1372 12.523 14.1386 12.5269 14.1386H17.1261C17.1287 14.1386 17.1299 14.14 17.1299 14.1428V15.6291C17.1299 15.633 17.1281 15.6349 17.1246 15.6349H11.159C11.1553 15.6349 11.152 15.6361 11.149 15.6384C10.9769 15.7756 10.8383 15.9269 10.7331 16.0925C10.5458 16.3874 10.4806 16.7335 10.5364 17.0884C10.5768 17.3463 10.6883 17.5621 10.8709 17.7358C11.1179 17.9709 11.465 18.082 11.7893 18.1289C11.9808 18.1567 12.1744 18.1677 12.3703 18.1619C12.8537 18.1476 13.298 18.0079 13.703 17.7428C14.1256 17.4661 14.4707 17.0786 14.7568 16.6352C14.757 16.6349 14.7573 16.6346 14.7576 16.6344C14.7579 16.6342 14.7582 16.6341 14.7585 16.634C14.7589 16.634 14.7592 16.634 14.7595 16.634C14.7599 16.6341 14.7602 16.6343 14.7605 16.6345L16.5941 17.9505C16.5944 17.9507 16.5947 17.951 16.5949 17.9513C16.5951 17.9516 16.5952 17.952 16.5953 17.9524C16.5954 17.9528 16.5954 17.9531 16.5953 17.9535C16.5952 17.9539 16.5951 17.9542 16.5949 17.9546C15.9486 19.0078 14.9572 19.745 13.8402 20.1204C13.422 20.2609 12.9942 20.3499 12.5567 20.3874C12.0738 20.4287 11.5834 20.4088 11.0854 20.3275C10.6893 20.2628 10.31 20.1494 9.94766 19.9873C9.50678 19.7901 9.08071 19.49 8.77012 19.1027C8.38265 18.6195 8.18633 18.0537 8.18113 17.4052C8.17602 16.7657 8.39044 16.1321 8.77895 15.6407C8.77916 15.6405 8.7793 15.6401 8.77935 15.6398C8.77939 15.6394 8.77934 15.6391 8.77921 15.6388C8.77907 15.6385 8.77885 15.6382 8.77858 15.638C8.7783 15.6378 8.77798 15.6377 8.77765 15.6377H6.94776C6.94499 15.6377 6.9436 15.6362 6.9436 15.6332V14.1462C6.9436 14.145 6.94405 14.1438 6.94485 14.143C6.94564 14.1421 6.94672 14.1416 6.94785 14.1416H9.87607C9.87943 14.1416 9.8827 14.1404 9.88533 14.1381L11.4818 12.7918C11.4822 12.7916 11.4824 12.7912 11.4826 12.7908C11.4827 12.7904 11.4827 12.7899 11.4825 12.7895C11.4824 12.7891 11.4822 12.7887 11.4818 12.7885C11.4815 12.7882 11.481 12.7881 11.4806 12.7881Z" fill="black"/>
<circle cx="12.4999" cy="13" r="11.0385" stroke="black" stroke-width="2"/>
</svg>
