<svg width="44" height="44" viewBox="0 0 44 44" fill="none" xmlns="http://www.w3.org/2000/svg">
<ellipse cx="17.5153" cy="33.611" rx="14.3822" ry="7.38887" stroke="white" stroke-width="2" stroke-linejoin="round"/>
<ellipse cx="17.5157" cy="11.4447" rx="8.2184" ry="8.44442" stroke="white" stroke-width="2" stroke-linejoin="round"/>
<path fill-rule="evenodd" clip-rule="evenodd" d="M27.3233 19.1186C26.9744 19.5887 26.5942 20.0329 26.1859 20.4481C26.6998 20.5729 27.2364 20.639 27.7888 20.639C31.6262 20.639 34.7026 17.4484 34.7026 13.5557C34.7026 10.0446 32.1998 7.1047 28.8933 6.56201C29.1134 7.10295 29.298 7.66292 29.4442 8.23885C31.6156 8.95817 33.2026 11.0547 33.2026 13.5557C33.2026 16.6586 30.7597 19.139 27.7888 19.139C27.6321 19.139 27.4768 19.1321 27.3233 19.1186Z" fill="#525252"/>
<path fill-rule="evenodd" clip-rule="evenodd" d="M35.933 34.6586C35.8473 35.261 35.6883 35.8501 35.4617 36.4225C35.9333 36.2695 36.3809 36.1023 36.8014 35.9223C37.9724 35.421 38.9679 34.8048 39.6817 34.0823C40.3986 33.3567 40.8669 32.4835 40.8669 31.5009C40.8669 30.5183 40.3986 29.6451 39.6817 28.9195C38.9679 28.197 37.9724 27.5808 36.8014 27.0795C35.1938 26.3912 33.1903 25.8916 30.9676 25.6455C31.8379 26.2247 32.6144 26.8601 33.2819 27.5422C34.3747 27.7841 35.362 28.0949 36.211 28.4584C37.2709 28.9122 38.0807 29.4333 38.6146 29.9737C39.1453 30.5109 39.3669 31.0261 39.3669 31.5009C39.3669 31.9757 39.1453 32.4909 38.6146 33.0281C38.0807 33.5685 37.2709 34.0896 36.211 34.5434C36.1199 34.5824 36.0272 34.6208 35.933 34.6586Z" fill="#525252"/>
</svg>
