<svg width="40" height="41" viewBox="0 0 40 41" fill="none" xmlns="http://www.w3.org/2000/svg">
<ellipse cx="16.5916" cy="28.9126" rx="10.6155" ry="5.4444" stroke="black" stroke-width="2" stroke-linejoin="round"/>
<ellipse cx="16.5919" cy="12.5793" rx="6.066" ry="6.22217" stroke="black" stroke-width="2" stroke-linejoin="round"/>
<path fill-rule="evenodd" clip-rule="evenodd" d="M23.967 18.0456C23.6286 18.5252 23.2469 18.9705 22.8276 19.3754C23.2571 19.4902 23.7084 19.5514 24.1745 19.5514C27.1192 19.5514 29.474 17.1082 29.474 14.1348C29.474 11.41 27.4965 9.13043 24.8997 8.76828C25.133 9.30263 25.3188 9.86359 25.4514 10.4455C26.914 10.9841 27.974 12.422 27.974 14.1348C27.974 16.316 26.255 18.0514 24.1745 18.0514C24.1049 18.0514 24.0358 18.0495 23.967 18.0456Z" fill="#525252"/>
<path fill-rule="evenodd" clip-rule="evenodd" d="M30.2129 29.46C30.1518 30.0669 29.9898 30.6566 29.7372 31.2226C30.15 31.0945 30.5401 30.9522 30.9037 30.7967C31.7824 30.4212 32.5416 29.9547 33.092 29.3985C33.6456 28.8392 34.024 28.1486 34.024 27.3573C34.024 26.566 33.6456 25.8753 33.092 25.316C32.5416 24.7598 31.7824 24.2933 30.9037 23.9178C29.6031 23.3619 27.9644 22.9727 26.1528 22.8073C27.0593 23.3652 27.8421 24.0017 28.4731 24.6993C29.155 24.8642 29.7741 25.0663 30.3142 25.2971C31.082 25.6252 31.6554 25.9968 32.0258 26.3711C32.3932 26.7423 32.524 27.0747 32.524 27.3573C32.524 27.6398 32.3932 27.9723 32.0258 28.3434C31.6554 28.7177 31.082 29.0893 30.3142 29.4174C30.2807 29.4317 30.247 29.4459 30.2129 29.46Z" fill="#525252"/>
</svg>
