<svg width="38" height="38" viewBox="0 0 38 38" fill="none" xmlns="http://www.w3.org/2000/svg">
<path d="M19.8067 3.0603C27.4126 4.44383 32.9441 10.6697 34.327 17.5874" stroke="white" stroke-width="2"/>
<path d="M19.8067 9.51758C23.8401 10.1901 27.3357 13.8219 27.8735 17.5882" stroke="white" stroke-width="2"/>
<path d="M19.8067 15.9751C20.6134 16.1096 21.3125 16.836 21.4201 17.5892" stroke="white" stroke-width="2"/>
<path d="M11.8611 18.7751C13.1567 21.4466 16.2282 24.2441 18.8254 26.0298C19.5741 26.5445 20.573 26.4168 21.2196 25.7786L22.6061 24.4102C22.9356 24.0849 23.6478 23.9215 24.2712 23.8483C24.7936 23.787 25.2997 24.0045 25.674 24.3739L29.4365 28.0874C29.8914 28.5364 30.5546 29.1909 30.1863 30.2392C30.1148 30.4428 29.9791 30.6162 29.8255 30.7678L28.1946 32.3775C26.3318 34.2161 25.6479 35.3027 23.848 34.829C14.5337 32.3775 8.32421 25.6359 4.59851 18.8944C3.74473 17.3492 3.35761 13.9918 3.97756 12.7657C4.26922 12.1889 6.21214 9.98326 7.47508 8.70385C7.62547 8.55149 7.79854 8.41684 8.00545 8.36187C8.90703 8.12234 9.81482 8.72099 10.1871 9.08839L13.9128 12.7656C14.9063 13.7462 14.3267 14.8085 13.9128 15.2171L12.2762 16.8324C11.7541 17.3476 11.541 18.1151 11.8611 18.7751Z" stroke="white" stroke-width="2"/>
</svg>
