<svg width="40" height="41" viewBox="0 0 40 41" fill="none" xmlns="http://www.w3.org/2000/svg">
<path d="M21 6.35709C27.8095 7.59518 32.7619 13.1666 34 19.3571" stroke="#09273B" stroke-width="2"/>
<path d="M21 12.3571C25 12.9404 28.4667 16.0904 29 19.3571" stroke="#09273B" stroke-width="2"/>
<path d="M21 18.3571C22 18.4404 22.8667 18.8904 23 19.3571" stroke="#09273B" stroke-width="2"/>
<path d="M14.4345 20.8965C15.6099 23.2291 18.2568 25.654 20.5366 27.2419C21.2819 27.761 22.2806 27.6331 22.9272 26.9952L24.0693 25.8684C24.3525 25.5891 24.9488 25.4422 25.4907 25.372C26.012 25.3044 26.5185 25.5232 26.8927 25.8924L30.2274 29.1821C30.6332 29.5824 31.2227 30.1639 30.9137 31.0911C30.8455 31.2959 30.7089 31.4685 30.5552 31.6201L29.1078 33.048C27.4283 34.7049 26.8118 35.6841 25.189 35.2572C16.7916 33.048 11.1934 26.973 7.83443 20.8979C7.0647 19.5055 6.71568 16.48 7.2746 15.3751C7.53583 14.8587 9.26634 12.8937 10.4054 11.7376C10.5556 11.5851 10.7288 11.4492 10.9368 11.3988C11.7395 11.2044 12.5415 11.7344 12.8728 12.0613L16.2318 15.375C17.1275 16.2586 16.605 17.2159 16.2318 17.5841L14.8402 18.9569C14.3179 19.4722 14.1044 20.2412 14.4345 20.8965Z" stroke="#09273B" stroke-width="2"/>
</svg>
