<svg width="31" height="32" viewBox="0 0 31 32" fill="none" xmlns="http://www.w3.org/2000/svg">
<g id="Frame 1623">
<path id="Vector 16" d="M16.5 2C23.3095 3.2381 28.2619 8.80952 29.5 15" stroke="#09273B" stroke-width="2"/>
<path id="Vector 15" d="M16.5 8C20.5 8.58333 23.9667 11.7333 24.5 15" stroke="#09273B" stroke-width="2"/>
<path id="Vector 17" d="M16.5 14C17.5 14.0833 18.3667 14.5333 18.5 15" stroke="#09273B" stroke-width="2"/>
<path id="Vector 14" d="M9.93454 16.5394C11.1099 18.872 13.7568 21.2969 16.0366 22.8849C16.7819 23.404 17.7806 23.276 18.4272 22.6381L19.5693 21.5113C19.8525 21.232 20.4488 21.0851 20.9907 21.0149C21.512 20.9473 22.0185 21.1661 22.3927 21.5353L25.7274 24.825C26.1332 25.2253 26.7227 25.8069 26.4137 26.734C26.3455 26.9388 26.2089 27.1114 26.0552 27.263L24.6078 28.691C22.9283 30.3478 22.3118 31.327 20.689 30.9001C12.2916 28.691 6.69338 22.6159 3.33443 16.5408C2.5647 15.1484 2.21568 12.1229 2.7746 11.018C3.03583 10.5016 4.76634 8.53662 5.90538 7.38048C6.05561 7.228 6.22881 7.0921 6.43684 7.04172C7.23945 6.84732 8.0415 7.37736 8.37285 7.70424L11.7318 11.0179C12.6275 11.9016 12.105 12.8588 11.7318 13.227L10.3402 14.5998C9.81787 15.1152 9.60435 15.8841 9.93454 16.5394Z" stroke="#09273B" stroke-width="2"/>
</g>
</svg>
