<svg width="30" height="31" viewBox="0 0 30 31" fill="none" xmlns="http://www.w3.org/2000/svg">
<path fill-rule="evenodd" clip-rule="evenodd" d="M19.9996 11.4285C19.9996 12.7546 19.4728 14.0264 18.5352 14.9641C17.5975 15.9017 16.3257 16.4285 14.9996 16.4285C13.6736 16.4285 12.4018 15.9017 11.4641 14.9641C10.5264 14.0264 9.99963 12.7546 9.99963 11.4285C9.99963 10.1024 10.5264 8.83068 11.4641 7.89299C12.4018 6.95531 13.6736 6.42853 14.9996 6.42853C16.3257 6.42853 17.5975 6.95531 18.5352 7.89299C19.4728 8.83068 19.9996 10.1024 19.9996 11.4285ZM17.4996 11.4285C17.4996 12.0916 17.2362 12.7275 16.7674 13.1963C16.2986 13.6651 15.6627 13.9285 14.9996 13.9285C14.3366 13.9285 13.7007 13.6651 13.2319 13.1963C12.763 12.7275 12.4996 12.0916 12.4996 11.4285C12.4996 10.7655 12.763 10.1296 13.2319 9.66076C13.7007 9.19192 14.3366 8.92853 14.9996 8.92853C15.6627 8.92853 16.2986 9.19192 16.7674 9.66076C17.2362 10.1296 17.4996 10.7655 17.4996 11.4285Z" fill="#EEF4F2"/>
<path fill-rule="evenodd" clip-rule="evenodd" d="M14.9996 1.42853C7.40588 1.42853 1.24963 7.58478 1.24963 15.1785C1.24963 22.7723 7.40588 28.9285 14.9996 28.9285C22.5934 28.9285 28.7496 22.7723 28.7496 15.1785C28.7496 7.58478 22.5934 1.42853 14.9996 1.42853ZM3.74963 15.1785C3.74963 17.791 4.64088 20.196 6.13463 22.106C7.18367 20.7284 8.53701 19.612 10.0889 18.8439C11.6408 18.0759 13.3493 17.677 15.0809 17.6785C16.79 17.6769 18.477 18.0654 20.0133 18.8145C21.5496 19.5636 22.8946 20.6534 23.9459 22.001C25.0289 20.5805 25.7582 18.9225 26.0733 17.1643C26.3883 15.406 26.2802 13.5979 25.7578 11.8898C25.2353 10.1816 24.3137 8.62234 23.069 7.34107C21.8243 6.05981 20.2924 5.09335 18.6001 4.52166C16.9078 3.94998 15.1036 3.78949 13.337 4.05349C11.5703 4.3175 9.89187 4.99839 8.4406 6.03984C6.98932 7.0813 5.8069 8.45337 4.99117 10.0425C4.17544 11.6317 3.74986 13.3922 3.74963 15.1785ZM14.9996 26.4285C12.4171 26.4324 9.91247 25.544 7.90963 23.9135C8.7158 22.7594 9.78881 21.8172 11.0374 21.1669C12.2859 20.5166 13.6731 20.1775 15.0809 20.1785C16.4711 20.1774 17.8415 20.508 19.0783 21.1428C20.3151 21.7776 21.3826 22.6983 22.1921 23.8285C20.1738 25.5119 17.6279 26.4322 14.9996 26.4285Z" fill="#EEF4F2"/>
</svg>
