<svg width="30" height="30" viewBox="0 0 30 30" fill="none" xmlns="http://www.w3.org/2000/svg">
<path fill-rule="evenodd" clip-rule="evenodd" d="M0.5 14.8571C0.5 6.85773 6.61585 0.357056 14.7157 0.357056C20.1471 0.357056 23.6973 3.25625 26.0882 6.04153V2.06294C26.0882 1.12081 26.852 0.357056 27.7941 0.357056C28.7362 0.357056 29.5 1.12081 29.5 2.06294V9.17078C29.5 9.98491 29.2212 10.7959 28.6094 11.4077C27.9977 12.0194 27.1867 12.2982 26.3725 12.2982H19.2647C18.3226 12.2982 17.5588 11.5345 17.5588 10.5924C17.5588 9.65022 18.3226 8.88647 19.2647 8.88647H24.0143C21.8912 6.23707 19.0865 3.76882 14.7157 3.76882C8.59984 3.76882 3.91176 8.6407 3.91176 14.8571C3.91176 21.0478 8.85913 25.9453 14.7157 25.9453C17.8888 25.9453 20.8478 24.4753 22.823 22.2531C23.449 21.549 24.5272 21.4856 25.2314 22.1115C25.9355 22.7374 25.9989 23.8156 25.373 24.5198C22.7993 27.4152 18.9347 29.3571 14.7157 29.3571C6.92519 29.3571 0.5 22.882 0.5 14.8571Z" fill="#09273B"/>
</svg>
